<?xml version="1.0" encoding="UTF-8" standalone="no"?>
<!DOCTYPE svg PUBLIC "-//W3C//DTD SVG 1.1//EN" "http://www.w3.org/Graphics/SVG/1.1/DTD/svg11.dtd">
<svg width="100%" height="100%" viewBox="0 0 2400 1200" version="1.1" xmlns="http://www.w3.org/2000/svg" xmlns:xlink="http://www.w3.org/1999/xlink" xml:space="preserve" xmlns:serif="http://www.serif.com/" style="fill-rule:evenodd;clip-rule:evenodd;">
    <g transform="matrix(2.83465,0,0,2.83465,815.388,673.664)">
        <g transform="matrix(6.12323e-17,-1,1,6.12323e-17,-34.1103,52)">
            <circle cx="6" cy="34" r="1.5" style="fill:none;stroke:rgb(255,0,0);stroke-width:0.2px;"/>
        </g>
        <g transform="matrix(6.12323e-17,-1,1,6.12323e-17,-34.1103,52)">
            <circle cx="6" cy="46" r="1.5" style="fill:none;stroke:rgb(255,0,0);stroke-width:0.2px;"/>
        </g>
        <g transform="matrix(6.12323e-17,-1,1,6.12323e-17,-34.1103,52)">
            <path d="M0,46C0,49.292 2.708,52 6,52C9.292,52 12,49.292 12,46L12,34C12,30.708 9.292,28 6,28C2.708,28 0,30.708 0,34L0,46" style="fill:none;fill-rule:nonzero;stroke:rgb(255,0,0);stroke-width:0.2px;"/>
        </g>
    </g>
    <g transform="matrix(2.83465,0,0,2.83465,815.388,673.664)">
        <g transform="matrix(-1,-1.22465e-16,1.22465e-16,-1,11.8897,75.14)">
            <circle cx="265.365" cy="21.78" r="1.75" style="fill:none;stroke:black;stroke-width:0.2px;"/>
        </g>
        <g transform="matrix(-1,-1.22465e-16,1.22465e-16,-1,11.8897,75.14)">
            <circle cx="265.365" cy="5.78" r="1.5" style="fill:none;stroke:black;stroke-width:0.2px;"/>
        </g>
        <g transform="matrix(-1,-1.22465e-16,1.22465e-16,-1,11.8897,75.14)">
            <circle cx="265.365" cy="12.78" r="1.75" style="fill:none;stroke:black;stroke-width:0.2px;"/>
        </g>
        <g transform="matrix(-1,-1.22465e-16,1.22465e-16,-1,11.8897,75.14)">
            <circle cx="265.365" cy="28.78" r="1.5" style="fill:none;stroke:black;stroke-width:0.2px;"/>
        </g>
        <g transform="matrix(-1,-1.22465e-16,1.22465e-16,-1,11.8897,74.7083)">
            <circle cx="12" cy="17.28" r="1.5" style="fill:none;stroke:black;stroke-width:0.2px;"/>
        </g>
        <g transform="matrix(-1,-1.22465e-16,1.22465e-16,-1,11.8897,74.7083)">
            <circle cx="12" cy="6" r="1.5" style="fill:none;stroke:black;stroke-width:0.2px;"/>
        </g>
        <g transform="matrix(-1,-1.22465e-16,1.22465e-16,-1,11.8897,74.56)">
            <path d="M6,0L6,22.56L12,22.56C15.292,22.56 18,25.268 18,28.56L18,34.56L271.365,34.56L271.365,0L6,0" style="fill:none;fill-rule:nonzero;stroke:black;stroke-width:0.2px;"/>
        </g>
    </g>
    <g transform="matrix(2.83465,0,0,2.83465,815.388,673.664)">
        <g transform="matrix(1,0,0,1,0,-4.93889)">
            <circle cx="12" cy="62.72" r="1.5" style="fill:none;stroke:rgb(0,0,255);stroke-width:0.2px;"/>
        </g>
        <g transform="matrix(1,0,0,1,0,-4.93889)">
            <circle cx="12" cy="74" r="1.5" style="fill:none;stroke:rgb(0,0,255);stroke-width:0.2px;"/>
        </g>
        <g transform="matrix(1,0,0,1,0,-5.235)">
            <circle cx="265.365" cy="73.47" r="1.5" style="fill:none;stroke:rgb(0,0,255);stroke-width:0.2px;"/>
        </g>
        <g transform="matrix(1,0,0,1,0,-5.235)">
            <circle cx="265.365" cy="62.72" r="2.5" style="fill:none;stroke:rgb(0,0,255);stroke-width:0.2px;"/>
        </g>
        <g transform="matrix(1,0,0,1,0,-5.235)">
            <circle cx="265.365" cy="51.97" r="1.5" style="fill:none;stroke:rgb(0,0,255);stroke-width:0.2px;"/>
        </g>
        <g transform="matrix(1,0,0,1,0,-5.44)">
            <path d="M6,80L6,57.44L12,57.44C15.292,57.44 18,54.732 18,51.44L18,45.44L271.365,45.44L271.365,80L6,80" style="fill:none;fill-rule:nonzero;stroke:rgb(0,0,255);stroke-width:0.2px;"/>
        </g>
    </g>
</svg>
